<?xml version="1.0" encoding="utf-8"?>
<!-- Generator: Adobe Illustrator 16.0.0, SVG Export Plug-In . SVG Version: 6.00 Build 0)  -->
<!DOCTYPE svg PUBLIC "-//W3C//DTD SVG 1.1//EN" "http://www.w3.org/Graphics/SVG/1.1/DTD/svg11.dtd">
<svg version="1.1" id="Layer_1" xmlns="http://www.w3.org/2000/svg" xmlns:xlink="http://www.w3.org/1999/xlink" x="0px" y="0px"
	 width="68.03px" height="68.03px" viewBox="0 0 68.03 68.03" enable-background="new 0 0 68.03 68.03" xml:space="preserve">
<path fill="#BDC3C7" d="M14.888,6.459c-3.076,0-5.571,2.506-5.571,5.57v22.283v11.141v16.712c0,3.063,2.495,5.57,5.571,5.57h38.994
	c3.079,0,5.57-2.507,5.57-5.57V45.452V34.312V23.17V12.029c0-3.063-2.491-5.57-5.57-5.57H42.741H14.888z"/>
<path fill="#95A5A6" d="M17.673,0.888c-1.538,0-2.785,1.114-2.785,2.785v8.355c0,1.393,1.247,2.785,2.785,2.785
	s2.786-1.392,2.786-2.785V3.673C20.459,2.002,19.211,0.888,17.673,0.888z M28.814,0.888c-1.538,0-2.785,1.114-2.785,2.785v8.355
	c0,1.393,1.247,2.785,2.785,2.785s2.786-1.392,2.786-2.785V3.673C31.6,2.002,30.352,0.888,28.814,0.888z M39.955,0.888
	c-1.539,0-2.785,1.114-2.785,2.785v8.355c0,1.393,1.246,2.785,2.785,2.785c1.54,0,2.786-1.392,2.786-2.785V3.673
	C42.741,2.002,41.495,0.888,39.955,0.888z M51.096,0.888c-1.539,0-2.784,1.114-2.784,2.785v8.355c0,1.393,1.245,2.785,2.784,2.785
	c1.54,0,2.786-1.392,2.786-2.785V3.673C53.882,2.002,52.636,0.888,51.096,0.888z"/>
<rect x="17.673" y="42.667" fill="#EE2444" width="33.422" height="2.785"/>
<rect x="17.673" y="34.312" fill="#A754A1" width="33.422" height="2.785"/>
<rect x="17.673" y="25.956" fill="#F2EA2B" width="33.422" height="2.785"/>
<rect x="17.673" y="51.022" fill="#67BD45" width="11.141" height="2.786"/>
<path fill="#7F8C8D" d="M14.888,12.029c0,1.393,1.247,2.785,2.785,2.785s2.786-1.392,2.786-2.785H14.888z M26.029,12.029
	c0,1.393,1.247,2.785,2.785,2.785s2.786-1.392,2.786-2.785H26.029z M37.17,12.029c0,1.393,1.246,2.785,2.785,2.785
	c1.54,0,2.786-1.392,2.786-2.785H37.17z M48.312,12.029c0,1.393,1.245,2.785,2.784,2.785c1.54,0,2.786-1.392,2.786-2.785H48.312z"/>
<path fill="#95A5A6" d="M9.317,59.379v2.785c0,3.063,2.495,5.57,5.571,5.57h38.994c3.079,0,5.57-2.507,5.57-5.57v-2.785
	c0,3.062-2.491,5.571-5.57,5.571H14.888C11.812,64.95,9.317,62.441,9.317,59.379z"/>
<g transform="matrix(.70711 .70711 -.70711 .70711 773.22 370.4)">
	<path fill="#EDF0F1" d="M-755.898,260.772l-0.001,31.474l-0.001,1.949l0,2.785l5.572,5.572l5.57-5.57v-2.786l0.001-1.951l0-31.473
		L-755.898,260.772z"/>
	<path fill="#BDC3C7" d="M-750.329,260.773l0.001,41.78l5.57-5.57v-2.786l0.001-1.951l0-31.473L-750.329,260.773z"/>
	<rect x="-755.899" y="263.558" fill="#E57E25" width="11.141" height="30.639"/>
	<path fill="#7F8C8D" d="M-750.328,252.417c-3.078-0.001-5.57,2.507-5.57,5.571l0.001,2.785l11.141,0l-0.001-2.786
		C-744.76,254.924-747.251,252.417-750.328,252.417z"/>
	<g transform="translate(-7,1)">
		<path fill="#364A5E" d="M-747.246,297.652l3.918,3.9l3.916-3.9l-3.916,0L-747.246,297.652z"/>
		<path fill="#2D3F50" d="M-743.328,297.652v3.9l3.916-3.9L-743.328,297.652z"/>
	</g>
	<path fill="#95A5A6" d="M-750.328,252.417c-3.078-0.001-5.57,2.507-5.57,5.571l0.001,2.785l5.569,0.001L-750.328,252.417z"/>
	<rect x="-750.329" y="263.558" fill="#D25727" width="5.572" height="30.639"/>
</g>
</svg>
