<?xml version="1.0" encoding="utf-8"?>
<!-- Generator: Adobe Illustrator 16.0.0, SVG Export Plug-In . SVG Version: 6.00 Build 0)  -->
<!DOCTYPE svg PUBLIC "-//W3C//DTD SVG 1.1//EN" "http://www.w3.org/Graphics/SVG/1.1/DTD/svg11.dtd">
<svg version="1.1" id="Layer_1" xmlns="http://www.w3.org/2000/svg" xmlns:xlink="http://www.w3.org/1999/xlink" x="0px" y="0px"
	 width="68.03px" height="68.03px" viewBox="0 0 68.03 68.03" enable-background="new 0 0 68.03 68.03" xml:space="preserve">
<g>
	<rect x="5.477" y="10.709" fill="#EEEDEE" width="57.321" height="57.321"/>
	<rect x="5.477" y="63.046" fill="#A7A6A9" width="57.321" height="2.492"/>
	<rect x="5.477" y="65.538" fill="#68696B" width="57.321" height="2.492"/>
	<rect x="5.477" y="4.315" fill="#CD3D2B" width="57.321" height="14.456"/>
	<circle fill="#E2D9D7" cx="20.418" cy="11.543" r="3.489"/>
	<circle fill="#E2D9D7" cx="46.837" cy="11.543" r="3.489"/>
	<path fill="#A7A6A9" d="M20.418,8.054c-1.927,0-3.489,1.562-3.489,3.489c0,0.287,0.04,0.564,0.103,0.831
		c0.374-1.524,1.745-2.658,3.386-2.658c1.64,0,3.011,1.134,3.385,2.658c0.067-0.267,0.104-0.544,0.104-0.831
		C23.907,9.616,22.346,8.054,20.418,8.054z"/>
	<path fill="#A7A6A9" d="M46.837,9.715c1.64,0,3.012,1.134,3.385,2.658c0.065-0.267,0.104-0.544,0.104-0.831
		c0-1.927-1.562-3.489-3.489-3.489s-3.489,1.562-3.489,3.489c0,0.287,0.039,0.564,0.103,0.831
		C43.824,10.85,45.196,9.715,46.837,9.715z"/>
	<g>
		<path fill="#000100" d="M24.596,28.109c0.941,0,1.832,0.131,2.668,0.393c0.837,0.261,1.574,0.655,2.21,1.178
			c0.635,0.522,1.139,1.175,1.508,1.953c0.371,0.78,0.556,1.681,0.556,2.706c0,0.801-0.125,1.525-0.375,2.171
			c-0.25,0.646-0.594,1.213-1.03,1.7c-0.437,0.489-0.951,0.898-1.544,1.232c-0.593,0.331-1.238,0.584-1.937,0.756
			c1.814,0.339,3.184,1.038,4.109,2.105c0.924,1.062,1.387,2.391,1.387,3.984c0,1.012-0.204,1.951-0.611,2.818
			c-0.408,0.866-0.966,1.612-1.674,2.242c-0.711,0.629-1.547,1.118-2.512,1.474c-0.966,0.354-2.013,0.531-3.141,0.531
			c-1.408,0-2.579-0.189-3.516-0.567c-0.936-0.378-1.707-0.868-2.312-1.474c-0.604-0.604-1.075-1.281-1.413-2.031
			c-0.337-0.751-0.611-1.499-0.819-2.241l0.662-0.282c0.141-0.057,0.273-0.087,0.402-0.087c0.128,0,0.25,0.03,0.367,0.087
			c0.116,0.06,0.202,0.172,0.261,0.334l0.122,0.347c0.07,0.212,0.168,0.47,0.296,0.777c0.127,0.308,0.293,0.628,0.496,0.959
			c0.205,0.331,0.458,0.665,0.759,0.996c0.304,0.331,0.673,0.626,1.108,0.89c0.437,0.26,0.948,0.475,1.536,0.636
			c0.586,0.162,1.265,0.245,2.032,0.245c1.047,0,1.963-0.175,2.749-0.524c0.785-0.347,1.442-0.795,1.97-1.333
			c0.529-0.542,0.925-1.146,1.188-1.814c0.261-0.669,0.393-1.317,0.393-1.946c0-0.757-0.119-1.459-0.358-2.111
			c-0.239-0.651-0.637-1.213-1.195-1.685c-0.558-0.471-1.293-0.842-2.206-1.115c-0.915-0.271-2.039-0.409-3.375-0.409v-1.203
			c1.07-0.024,2.011-0.166,2.826-0.429c0.814-0.263,1.495-0.62,2.042-1.071c0.545-0.453,0.959-0.996,1.238-1.625
			c0.279-0.626,0.419-1.318,0.419-2.075c0-0.872-0.146-1.629-0.437-2.268c-0.292-0.64-0.68-1.169-1.168-1.588
			c-0.488-0.418-1.058-0.726-1.709-0.925c-0.653-0.197-1.332-0.296-2.041-0.296c-0.78,0-1.496,0.117-2.147,0.35
			c-0.65,0.231-1.227,0.558-1.727,0.976c-0.501,0.419-0.918,0.923-1.256,1.509c-0.337,0.587-0.586,1.241-0.75,1.962
			c-0.094,0.407-0.309,0.61-0.646,0.61c-0.082,0-0.146-0.006-0.191-0.017l-0.854-0.139c0.15-1.058,0.441-2.002,0.871-2.827
			c0.431-0.825,0.978-1.523,1.64-2.093c0.663-0.571,1.431-1.003,2.303-1.3C22.641,28.258,23.583,28.109,24.596,28.109z"/>
		<path fill="#000100" d="M39.527,51.801h5.671V31.757c0-0.396,0.017-0.813,0.053-1.257l-5.444,4.836
			c-0.115,0.105-0.256,0.157-0.419,0.157c-0.198,0-0.348-0.07-0.452-0.21l-0.506-0.699l7.134-6.302h1.291v23.517h5.392v1.273H39.527
			V51.801z"/>
	</g>
	<path fill="#656568" d="M22.351,2.221c0-1.067-0.865-1.931-1.932-1.931l0,0c-1.066,0-1.931,0.864-1.931,1.931v9.506
		c0,1.066,0.864,1.932,1.931,1.932l0,0c1.067,0,1.932-0.865,1.932-1.932V2.221z"/>
	<path fill="#656568" d="M48.77,2.221c0-1.067-0.866-1.931-1.933-1.931l0,0c-1.066,0-1.932,0.864-1.932,1.931v9.506
		c0,1.066,0.865,1.932,1.932,1.932l0,0c1.066,0,1.933-0.865,1.933-1.932V2.221z"/>
</g>
</svg>
