<?xml version="1.0" encoding="utf-8"?>
<!-- Generator: Adobe Illustrator 16.0.0, SVG Export Plug-In . SVG Version: 6.00 Build 0)  -->
<!DOCTYPE svg PUBLIC "-//W3C//DTD SVG 1.1//EN" "http://www.w3.org/Graphics/SVG/1.1/DTD/svg11.dtd">
<svg version="1.1" id="Layer_1" xmlns="http://www.w3.org/2000/svg" xmlns:xlink="http://www.w3.org/1999/xlink" x="0px" y="0px"
	 width="68.03px" height="68.03px" viewBox="0 0 68.03 68.03" enable-background="new 0 0 68.03 68.03" xml:space="preserve">
<g>
	<g>
		<circle fill="#4B5C61" cx="34.014" cy="34.015" r="33.374"/>
		<circle fill="#FFFFFF" cx="34.015" cy="34.015" r="28.364"/>
		<circle fill="#EF4772" cx="34.015" cy="11.074" r="1.325"/>
		<circle fill="#4B5C61" cx="50.236" cy="17.793" r="1.324"/>
		<circle fill="#EF4772" cx="56.955" cy="34.015" r="1.324"/>
		<circle fill="#4B5C61" cx="50.236" cy="50.237" r="1.324"/>
		<circle fill="#EF4772" cx="34.015" cy="56.957" r="1.325"/>
		<circle fill="#4B5C61" cx="17.793" cy="50.237" r="1.325"/>
		<circle fill="#EF4772" cx="11.073" cy="34.015" r="1.324"/>
		<path fill="#4B5C61" d="M35,33.82c-0.005-0.029-0.016-0.056-0.025-0.083c-0.01-0.035-0.018-0.071-0.032-0.106
			c-0.013-0.03-0.03-0.058-0.045-0.086c-0.015-0.029-0.029-0.06-0.048-0.088c-0.027-0.042-0.062-0.079-0.096-0.116
			c-0.009-0.011-0.018-0.024-0.028-0.035l-0.511-0.51V17.794c0-0.111-0.091-0.202-0.201-0.202c-0.111,0-0.201,0.091-0.201,0.202
			v14.598L23.255,21.833c-0.393-0.392-1.029-0.392-1.421,0c-0.393,0.393-0.393,1.03,0,1.422l11.175,11.176v9.556
			c0,0.555,0.45,1.006,1.005,1.006c0.556,0,1.005-0.451,1.005-1.006v-9.973C35.02,33.95,35.014,33.883,35,33.82z"/>
		<circle fill="#4B5C61" cx="17.793" cy="17.793" r="1.325"/>
		<circle fill="#55C09F" cx="34.015" cy="34.015" r="1.325"/>
	</g>
	<path opacity="0.3" fill="#4B5C61" d="M34.014,0.641v5.01c15.666,0,28.365,12.699,28.365,28.364
		c0,15.665-12.699,28.364-28.365,28.364v5.012c18.433,0,33.375-14.943,33.375-33.375S52.447,0.641,34.014,0.641z"/>
	<path opacity="0.3" fill="#FFFFFF" d="M35.34,11.074c0,0.732-0.594,1.325-1.326,1.325v5.193c0.11,0,0.201,0.091,0.201,0.202v14.917
		c0.637,0.098,1.125,0.642,1.125,1.304c0,0.328-0.123,0.623-0.32,0.854v9.119c0,0.557-0.45,1.006-1.005,1.006v10.637l0,0
		c0.732,0,1.326,0.594,1.326,1.326s-0.593,1.324-1.326,1.324l0,0v4.098c15.666,0,28.365-12.699,28.365-28.364
		c0-15.665-12.699-28.364-28.365-28.364V9.75C34.746,9.75,35.34,10.343,35.34,11.074z M56.955,32.692
		c0.732,0,1.324,0.592,1.324,1.323s-0.592,1.327-1.324,1.327c-0.73,0-1.324-0.595-1.324-1.327S56.225,32.692,56.955,32.692z
		 M51.174,51.174c-0.518,0.518-1.355,0.518-1.873,0c-0.518-0.516-0.518-1.355,0-1.873c0.518-0.52,1.355-0.52,1.871,0
		C51.689,49.818,51.689,50.658,51.174,51.174z M49.301,16.856c0.516-0.517,1.355-0.517,1.871,0c0.518,0.518,0.518,1.356,0,1.874
		c-0.516,0.518-1.355,0.518-1.871,0C48.783,18.213,48.783,17.375,49.301,16.856z"/>
	<path opacity="0.3" fill="#EF4772" d="M35.34,11.074c0-0.731-0.594-1.324-1.326-1.324v2.649
		C34.746,12.399,35.34,11.806,35.34,11.074z"/>
	<circle opacity="0.3" fill="#4B5C61" cx="50.236" cy="17.793" r="1.324"/>
	<circle opacity="0.3" fill="#EF4772" cx="56.955" cy="34.017" r="1.325"/>
	<circle opacity="0.3" fill="#4B5C61" cx="50.237" cy="50.237" r="1.324"/>
	<path opacity="0.3" fill="#EF4772" d="M35.34,56.957c0-0.732-0.593-1.326-1.326-1.326l0,0v2.65l0,0
		C34.747,58.281,35.34,57.689,35.34,56.957z"/>
	<path opacity="0.3" fill="#4B5C61" d="M34.215,32.711V17.794c0-0.111-0.091-0.202-0.201-0.202v15.1
		C34.083,32.692,34.151,32.701,34.215,32.711z"/>
	<path opacity="0.3" fill="#4B5C61" d="M35.02,43.988V34.87c-0.243,0.285-0.6,0.472-1.005,0.472v9.652
		C34.57,44.994,35.02,44.545,35.02,43.988z"/>
	<path opacity="0.3" fill="#55C09F" d="M34.726,33.305c0.011,0.011,0.02,0.024,0.028,0.035c0.034,0.037,0.068,0.074,0.096,0.117
		c0.019,0.027,0.033,0.058,0.048,0.088c0.015,0.027,0.032,0.055,0.045,0.086c0.015,0.035,0.022,0.071,0.032,0.105
		c0.009,0.027,0.02,0.055,0.025,0.083c0.014,0.063,0.02,0.13,0.02,0.195v0.854c0.197-0.231,0.32-0.526,0.32-0.854
		c0-0.662-0.488-1.206-1.125-1.304v0.084L34.726,33.305z"/>
	<path opacity="0.3" fill="#55C09F" d="M34.014,35.342c0.405,0,0.763-0.188,1.005-0.472v-0.854c0-0.065-0.006-0.132-0.02-0.195
		c-0.005-0.028-0.016-0.056-0.025-0.083c-0.01-0.034-0.018-0.07-0.032-0.105c-0.013-0.031-0.03-0.059-0.045-0.086
		c-0.015-0.03-0.029-0.061-0.048-0.088c-0.027-0.043-0.062-0.08-0.096-0.117c-0.009-0.011-0.018-0.024-0.028-0.035l-0.511-0.51
		v-0.084c-0.064-0.011-0.132-0.02-0.201-0.02V35.342z"/>
</g>
</svg>
